<?xml version="1.0"?>
<svg xmlns="http://www.w3.org/2000/svg" height="512px" viewBox="-61 0 432 432.57103" width="512px" class=""><g><path d="m123.703125 319.699219c-2.160156 1.839843-5.0625 2.550781-7.828125 1.921875-2.765625-.632813-5.074219-2.527344-6.226562-5.121094l-16.625-37.425781-12.242188 3.207031-47.460938 115.226562c-.296874.722657-.148437 1.546876.382813 2.121094.527344.570313 1.339844.785156 2.082031.542969l38.390625-12.433594c8.527344-2.722656 17.765625 1.207031 21.722657 9.234375l16.816406 34.472656c.34375.710938 1.074218 1.152344 1.863281 1.125.789063-.027343 1.488281-.515624 1.785156-1.246093l30.433594-74.53125-17.222656-42.089844zm0 0" data-original="#000000" class="active-path" data-old_color="#000000" fill="#647281"/><path d="m230.324219 282.640625-13.628907-3.566406-16.625 37.425781c-1.15625 2.589844-3.464843 4.484375-6.226562 5.121094-.652344.148437-1.316406.222656-1.980469.222656-2.144531 0-4.214843-.757812-5.847656-2.144531l-31.15625-26.511719-12.460937 10.601562 50.953124 124.527344c.296876.730469.996094 1.21875 1.785157 1.246094.789062.027344 1.519531-.410156 1.867187-1.121094l16.8125-34.472656c3.957032-8.03125 13.195313-11.960938 21.726563-9.234375l38.386719 12.429687c.742187.242188 1.554687.027344 2.085937-.542968.527344-.570313.675781-1.398438.382813-2.117188zm0 0" data-original="#000000" class="active-path" data-old_color="#000000" fill="#647281"/><path d="m154.859375 62.53125c-48.707031 0-88.191406 39.484375-88.191406 88.191406 0 48.703125 39.484375 88.1875 88.1875 88.1875 48.707031.003906 88.191406-39.480468 88.191406-88.1875-.054687-48.683594-39.503906-88.136718-88.1875-88.191406zm24.1875 57.75h15.234375c4.417969 0 8 3.582031 8 8 0 4.421875-3.582031 8-8 8h-15.234375c-3.566406 19.824219-20.910156 34.1875-41.050781 34h-2.445313l41.769531 39.460938c3.207032 3.035156 3.347657 8.09375.3125 11.304687-3.035156 3.207031-8.09375 3.34375-11.300781.3125l-56.390625-53.316406c-2.375-2.246094-3.140625-5.710938-1.925781-8.746094 1.210937-3.035156 4.152344-5.023437 7.421875-5.015625h22.558594c11.292968.183594 21.328125-7.175781 24.554687-18h-47.113281c-4.417969 0-8-3.578125-8-8 0-4.417969 3.582031-8 8-8h47.113281c-3.375-10-13.101562-17-24.554687-17h-22.558594c-4.417969 0-8-3.578125-8-8 0-4.417969 3.582031-8 8-8h78.84375c4.417969 0 8 3.582031 8 8 0 4.421875-3.582031 8-8 8h-23.421875c4 4.960938 6.804687 10.78125 8.1875 17zm0 0" data-original="#000000" class="active-path" data-old_color="#000000" fill="#647281"/><path d="m279.425781 173.226562 30.007813-22.535156-30-22.46875c-3.539063-2.632812-4.636719-7.441406-2.59375-11.351562l17.269531-33.242188-36.75-7.152344c-4.335937-.828124-7.421875-4.6875-7.277344-9.097656l1.175781-37.523437-36.261718 9.5c-4.265625 1.128906-8.714844-1.011719-10.5-5.046875l-15.238282-34.308594-28.558593 24.300781c-3.355469 2.875-8.308594 2.875-11.667969 0l-28.558594-24.300781-15.238281 34.300781c-1.78125 4.035157-6.234375 6.175781-10.5 5.050781l-36.265625-9.5 1.171875 37.507813c.148437 4.414063-2.9375 8.28125-7.277344 9.113281l-36.75 7.15625 17.269531 33.238282c2.042969 3.910156.941407 8.726562-2.601562 11.355468l-29.996094 22.460938 30.007813 22.535156c3.523437 2.632812 4.617187 7.429688 2.589843 11.332031l-17.277343 33.257813 36.75 7.152344c4.332031.832031 7.421875 4.691406 7.273437 9.101562l-1.171875 37.519531 36.261719-9.5c4.265625-1.125 8.714844 1.015625 10.5 5.046875l15.242188 34.308594 28.5625-24.296875c3.355468-2.878906 8.308593-2.878906 11.664062 0l28.558594 24.296875 15.238281-34.296875c1.78125-4.039063 6.234375-6.179687 10.5-5.054687l36.269531 9.5-1.167968-37.5c-.148438-4.414063 2.9375-8.28125 7.277343-9.113282l36.75-7.15625-17.269531-33.242187c-2.039062-3.90625-.945312-8.710938 2.582031-11.347657zm-124.566406 81.683594c-57.542969 0-104.191406-46.644531-104.191406-104.1875 0-57.542968 46.644531-104.191406 104.1875-104.191406s104.191406 46.644531 104.191406 104.1875c-.0625 57.515625-46.671875 104.128906-104.1875 104.191406zm0 0" data-original="#000000" class="active-path" data-old_color="#000000" fill="#647281"/></g> </svg>
